<svg xmlns="http://www.w3.org/2000/svg" viewBox="0 0 68.98 68.98"><defs><style>.a{fill:#d0271a;}</style></defs><title>logo-resolution-mark</title><path class="a" d="M34.49,0A34.49,34.49,0,1,0,69,34.49,34.49,34.49,0,0,0,34.49,0ZM15.14,24.88H10.33V20.07h4.81Zm38.4,33.64H42.42L34,44.1H29.56V58.52H20V29.68h4.8v-4.8H20V10.46H37.41a16,16,0,0,1,11.71,4.46C52,17.82,53.59,22,53.59,27.07s-1.48,9.3-4.28,12.3a14.19,14.19,0,0,1-4.94,3.42Z"/><path class="a" d="M37.41,20.07H29.56V34.49h7.85c5.82,0,6.56-4,6.56-7.42,0-2.46-.52-4.22-1.63-5.37S39.65,20.07,37.41,20.07Z"/></svg>