<svg xmlns="http://www.w3.org/2000/svg" viewBox="0 0 314.55 155.51"><defs><style>.a{fill:#d0271a;}</style></defs><title>resolution-logo-both</title><path class="a" d="M20.86,132.68A8.39,8.39,0,0,0,17.91,126a9.06,9.06,0,0,0-6.11-2.08H0v31H4.59v-13.1h5.79l6.22,13.21H22l-7-13.76A8.61,8.61,0,0,0,20.86,132.68Zm-9.39,4.92H4.59v-9.4h7.1a5.11,5.11,0,0,1,3.38,1,4.12,4.12,0,0,1,1.53,3.49,4.81,4.81,0,0,1-4.68,4.93h-.45Z"/><polygon class="a" points="35.28 155.07 54.5 155.07 54.5 150.7 39.87 150.7 39.87 141.53 52.32 141.53 52.32 137.38 39.87 137.38 39.87 128.53 54.5 128.53 54.5 124.05 35.28 124.05 35.28 155.07"/><path class="a" d="M79.4,137.38,76,136.94a5.72,5.72,0,0,1-3.28-1.53,3.46,3.46,0,0,1-1-2.4,4.05,4.05,0,0,1,1.53-3.39,5.61,5.61,0,0,1,3.49-1.09,13.51,13.51,0,0,1,7.43,2.4l2.51-3.82A16.49,16.49,0,0,0,77,123.94a10,10,0,0,0-7.21,2.52A8.61,8.61,0,0,0,67.17,133a8.43,8.43,0,0,0,2.08,5.79,9.72,9.72,0,0,0,5.89,2.95l3.94.54Q83,143,83,146.44t-5.9,4.37a12.84,12.84,0,0,1-8.52-3.06l-3,3.5a16.72,16.72,0,0,0,11.47,4.26q10.26-.1,10.59-9.07a8.94,8.94,0,0,0-2-5.79A9.26,9.26,0,0,0,79.4,137.38Z"/><path class="a" d="M121,129.4a10.3,10.3,0,0,0-9.4-5.57,10.11,10.11,0,0,0-5.89,1.75,10.6,10.6,0,0,0-3.5,3.82,8.85,8.85,0,0,0-1,2.95,54.3,54.3,0,0,0-.33,7.21,54.23,54.23,0,0,0,.33,7.21,9.2,9.2,0,0,0,.43,1.64l.55,1.31a10.8,10.8,0,0,0,9.39,5.57,10.51,10.51,0,0,0,6-1.75,10.06,10.06,0,0,0,3.39-3.82,7.42,7.42,0,0,0,1.09-2.95,64.25,64.25,0,0,0,.22-7.21,64.32,64.32,0,0,0-.22-7.21A7.48,7.48,0,0,0,121,129.4Zm-3.5,16.39a5.57,5.57,0,0,1-1.2,2.62,5,5,0,0,1-1.86,1.53,5.4,5.4,0,0,1-2.84.65,5.22,5.22,0,0,1-2.73-.65,5.37,5.37,0,0,1-1.85-1.53,5.27,5.27,0,0,1-1.21-2.62,37.07,37.07,0,0,1-.32-6.23,39.17,39.17,0,0,1,.32-6.22,5.23,5.23,0,0,1,1.21-2.62,5.59,5.59,0,0,1,1.85-1.64,6.17,6.17,0,0,1,2.73-.66,6.33,6.33,0,0,1,2.84.66,6.5,6.5,0,0,1,3.06,4.15,40.4,40.4,0,0,1,.33,6.22A39.51,39.51,0,0,1,117.52,145.79Z"/><polygon class="a" points="141.77 124.05 137.18 124.05 137.18 155.07 156.4 155.07 156.4 150.7 141.77 150.7 141.77 124.05"/><path class="a" d="M186.44,144a6.58,6.58,0,0,1-1.75,4.81,5.89,5.89,0,0,1-4.37,1.74,5.78,5.78,0,0,1-4.37-1.74,6.53,6.53,0,0,1-1.74-4.81v-20h-4.59v20.54a10.12,10.12,0,0,0,3.17,7.75A10.71,10.71,0,0,0,191,144.59V124.05h-4.59Z"/><polygon class="a" points="203.15 128.2 211.45 128.2 211.45 155.07 215.93 155.07 215.93 128.2 224.23 128.2 224.23 124.05 203.15 124.05 203.15 128.2"/><rect class="a" x="236.79" y="124.05" width="4.59" height="31.02"/><path class="a" d="M275.89,129.4a10.27,10.27,0,0,0-9.39-5.57,10.16,10.16,0,0,0-5.9,1.75,10.69,10.69,0,0,0-3.5,3.82,8.85,8.85,0,0,0-1,2.95,54.3,54.3,0,0,0-.33,7.21,54.23,54.23,0,0,0,.33,7.21,8.45,8.45,0,0,0,.44,1.64l.54,1.31a10.82,10.82,0,0,0,9.4,5.57,10.48,10.48,0,0,0,6-1.75,10.06,10.06,0,0,0,3.39-3.82,7.27,7.27,0,0,0,1.09-2.95,59.83,59.83,0,0,0,.22-7.21,59.89,59.89,0,0,0-.22-7.21A7.33,7.33,0,0,0,275.89,129.4Zm-3.49,16.39a5.58,5.58,0,0,1-1.21,2.62,5,5,0,0,1-1.85,1.53,5.4,5.4,0,0,1-2.84.65,5.18,5.18,0,0,1-2.73-.65,5.31,5.31,0,0,1-1.86-1.53,5.25,5.25,0,0,1-1.2-2.62,38.16,38.16,0,0,1-.33-6.23,38,38,0,0,1,.33-6.22,5.22,5.22,0,0,1,1.2-2.62,5.63,5.63,0,0,1,1.86-1.64,6.14,6.14,0,0,1,2.73-.66,6.4,6.4,0,0,1,2.84.66,6.53,6.53,0,0,1,3.06,4.15,41.69,41.69,0,0,1,.32,6.22,40.78,40.78,0,0,1-.43,6.34Z"/><polygon class="a" points="309.97 146.12 309.97 146.12 296.31 124.05 292.06 124.05 292.06 155.07 296.53 155.07 296.53 133.01 296.64 133.01 310.29 155.07 314.55 155.07 314.55 124.05 309.97 124.05 309.97 146.12"/><path class="a" d="M156.75,0a46.62,46.62,0,1,0,46.62,46.62A46.62,46.62,0,0,0,156.75,0ZM130.6,33.63h-6.5v-6.5h6.5ZM182.5,79.1h-15L156.1,59.61h-6V79.1h-13v-39h6.5v-6.5h-6.5V14.14H160.7c6.6,0,12,2.18,15.83,6s6,9.55,6,16.41-2,12.58-5.77,16.64a19.16,19.16,0,0,1-6.69,4.62Z"/><path class="a" d="M160.7,27.13H150.08V46.62H160.7c7.86,0,8.87-5.36,8.87-10,0-3.31-.71-5.7-2.2-7.24S163.72,27.13,160.7,27.13Z"/></svg>