<?xml version="1.0" encoding="UTF-8"?>
<svg width="48px" height="40px" viewBox="0 0 48 40" version="1.1" xmlns="http://www.w3.org/2000/svg" xmlns:xlink="http://www.w3.org/1999/xlink">
    <!-- Generator: Sketch 49 (51002) - http://www.bohemiancoding.com/sketch -->
    <title>Shape</title>
    <desc>Created with Sketch.</desc>
    <defs></defs>
    <g id="Page-1" stroke="none" stroke-width="1" fill="none" fill-rule="evenodd">
        <g id="twitter-black" fill="#D0271A" fill-rule="nonzero">
            <path d="M48,4.735 C46.207525,5.55140666 44.3002891,6.08765865 42.345,6.325 C44.4152598,5.04713065 45.9532573,3.06336248 46.675,0.74 C44.7475643,1.91344632 42.6301359,2.74153445 40.418,3.187 C38.627,1.225 36.066,0 33.231,0 C27.796,0 23.387,4.521 23.387,10.098 C23.387,10.889 23.472,11.658 23.641,12.398 C15.456,11.974 8.2,7.96 3.34,1.842 C2.46389615,3.39253938 2.00559672,5.1440702 2.01,6.925 C2.01,10.427 3.748,13.518 6.39,15.33 C4.82248295,15.2781374 3.29111571,14.8457029 1.928,14.07 L1.928,14.194 C1.928,19.088 5.323,23.171 9.831,24.095 C8.98688017,24.3343206 8.11338402,24.4541529 7.236,24.451 C6.602,24.451 5.982,24.39 5.382,24.271 C6.636,28.281 10.27,31.203 14.581,31.281 C11.211,33.991 6.963,35.606 2.351,35.606 C1.556,35.606 0.771,35.559 0.001,35.467 C4.359,38.327 9.537,40 15.096,40 C33.211,40 43.115,24.615 43.115,11.27 C43.115,10.831 43.106,10.392 43.089,9.962 C45.0245259,8.5263777 46.6877076,6.756178 48,4.735" id="Shape"></path>
        </g>
    </g>
</svg>