<?xml version="1.0" encoding="UTF-8"?>
<svg width="56px" height="16px" viewBox="0 0 56 16" version="1.1" xmlns="http://www.w3.org/2000/svg" xmlns:xlink="http://www.w3.org/1999/xlink">
    <!-- Generator: Sketch 49.1 (51147) - http://www.bohemiancoding.com/sketch -->
    <title>menu</title>
    <desc>Created with Sketch.</desc>
    <defs></defs>
    <g id="Page-1" stroke="none" stroke-width="1" fill="none" fill-rule="evenodd">
        <g id="Mobile" transform="translate(-257.000000, -13.000000)" fill="#D0271A">
            <path d="M277.853972,16.6309963 C277.853972,16.9655613 277.829372,17.3444013 277.780171,17.7675277 C277.730971,18.190654 277.667011,18.618694 277.588289,19.0516605 L275.964673,28.498155 L272.717441,28.498155 L274.370577,19.0811808 C274.409938,18.825337 274.444378,18.579337 274.473898,18.3431734 C274.503419,18.1070099 274.518179,17.8708499 274.518179,17.6346863 C274.518179,17.142679 274.419779,16.719559 274.222976,16.3653137 C274.026173,16.0110683 273.642413,15.8339483 273.071684,15.8339483 C272.7568,15.8339483 272.437,15.9175883 272.112275,16.0848708 C271.78755,16.2521534 271.48743,16.4784734 271.211906,16.7638376 C270.936382,17.0492019 270.695302,17.3886819 270.488658,17.7822878 C270.282015,18.1758937 270.139335,18.5990137 270.060614,19.0516605 L268.436998,28.498155 L265.219286,28.498155 L266.872422,19.0811808 C266.911783,18.825337 266.946223,18.579337 266.975743,18.3431734 C267.005264,18.1070099 267.020024,17.8708499 267.020024,17.6346863 C267.020024,17.142679 266.916704,16.719559 266.710061,16.3653137 C266.503418,16.0110683 266.114738,15.8339483 265.544009,15.8339483 C264.796158,15.8339483 264.136878,16.2078683 263.566149,16.9557196 C262.995421,17.7035708 262.601821,18.6580508 262.385337,19.8191882 L260.879802,28.498155 L257.69161,28.498155 L259.66947,17.2509225 C259.689151,17.0541196 259.728511,16.7736796 259.787551,16.4095941 C259.846592,16.0455086 259.905632,15.6715886 259.964673,15.2878229 C260.023714,14.9040571 260.077834,14.5498171 260.127035,14.2250923 C260.176236,13.9003674 260.210676,13.6592874 260.230356,13.501845 L263.270946,13.501845 C263.231586,13.7773692 263.182386,14.1463692 263.123345,14.6088561 C263.064304,15.071343 263.005264,15.509223 262.946223,15.9225092 L263.005264,15.9225092 C263.39887,15.0959368 263.94499,14.4022168 264.64364,13.8413284 C265.34229,13.28044 266.15409,13 267.079064,13 C267.630113,13 268.102433,13.08364 268.496039,13.2509225 C268.889644,13.418205 269.204524,13.649445 269.440688,13.9446494 C269.676852,14.2398539 269.853972,14.5842539 269.972053,14.9778598 C270.090135,15.3714657 270.168855,15.7847457 270.208216,16.2177122 C270.405019,15.7847457 270.646099,15.3763857 270.931463,14.9926199 C271.216827,14.6088542 271.541547,14.2693742 271.905633,13.9741697 C272.269718,13.6789653 272.678078,13.4428053 273.130725,13.2656827 C273.583372,13.08856 274.085212,13 274.63626,13 C275.226669,13 275.728509,13.10332 276.141795,13.3099631 C276.555081,13.5166062 276.884721,13.7921262 277.130725,14.1365314 C277.376729,14.4809365 277.558769,14.8696165 277.67685,15.302583 C277.794932,15.7355495 277.853972,16.1783495 277.853972,16.6309963 Z M288.972323,18.0479705 C288.972323,18.4415764 288.952643,18.9138964 288.913283,19.4649446 C288.873922,20.0159929 288.765682,20.7933529 288.588559,21.797048 L280.883762,21.797048 C280.844402,22.0332115 280.814882,22.2693715 280.795202,22.5055351 C280.775521,22.7416986 280.765681,22.9680186 280.765681,23.1845018 C280.765681,24.0504348 280.932961,24.7539948 281.267526,25.295203 C281.602091,25.8364111 282.123611,26.1070111 282.832102,26.1070111 C283.442191,26.1070111 283.953871,25.9151311 284.367157,25.5313653 C284.780443,25.1475996 285.134683,24.6998796 285.429888,24.1881919 L287.67343,25.6346863 C287.122382,26.5990208 286.423742,27.4009808 285.577489,28.0405904 C284.731237,28.6802 283.698037,29 282.477858,29 C280.942795,29 279.752155,28.50308 278.905903,27.5092251 C278.05965,26.5153702 277.63653,25.1033302 277.63653,23.2730627 C277.63653,21.954483 277.80381,20.680203 278.138375,19.4501845 C278.47294,18.2201661 278.94526,17.1279261 279.555349,16.1734317 C280.165438,15.2189374 280.898518,14.4514174 281.754611,13.8708487 C282.610704,13.29028 283.550424,13 284.573799,13 C285.361011,13 286.035051,13.123 286.59594,13.3690037 C287.156828,13.6150074 287.614388,13.9643274 287.968633,14.4169742 C288.322879,14.869621 288.578719,15.405901 288.736161,16.0258303 C288.893603,16.6457596 288.972323,17.3197996 288.972323,18.0479705 Z M286.079334,18.0479705 C286.079334,17.3001193 285.946494,16.7097193 285.68081,16.2767528 C285.415126,15.8437863 284.987086,15.6273063 284.396678,15.6273063 C283.963711,15.6273063 283.575031,15.7552263 283.230626,16.0110701 C282.886221,16.2669139 282.581181,16.5916339 282.315497,16.9852399 C282.049813,17.3788458 281.833333,17.8019658 281.66605,18.2546125 C281.498768,18.7072593 281.385608,19.1205393 281.326567,19.4944649 L285.931733,19.4944649 C285.990774,19.2189408 286.030134,18.9631008 286.049814,18.7269373 C286.069494,18.4907737 286.079334,18.2644537 286.079334,18.0479705 Z M300.62204,16.6309963 C300.62204,16.9655613 300.59252,17.3444013 300.533479,17.7675277 C300.474438,18.190654 300.405558,18.618694 300.326837,19.0516605 L298.703221,28.498155 L295.485508,28.498155 L297.138645,19.0811808 C297.178006,18.825337 297.212446,18.579337 297.241966,18.3431734 C297.271486,18.1070099 297.286246,17.8708499 297.286246,17.6346863 C297.286246,17.142679 297.182926,16.719559 296.976283,16.3653137 C296.76964,16.0110683 296.38096,15.8339483 295.810232,15.8339483 C295.06238,15.8339483 294.4031,16.2078683 293.832372,16.9557196 C293.261643,17.7035708 292.868043,18.6580508 292.65156,19.8191882 L291.146025,28.498155 L287.957833,28.498155 L289.935693,17.2509225 C289.955373,17.0541196 289.994733,16.7736796 290.053774,16.4095941 C290.112815,16.0455086 290.171855,15.6715886 290.230896,15.2878229 C290.289937,14.9040571 290.344057,14.5498171 290.393257,14.2250923 C290.442458,13.9003674 290.476898,13.6592874 290.496579,13.501845 L293.537169,13.501845 C293.497808,13.7773692 293.448608,14.1512892 293.389567,14.6236162 C293.330527,15.0959433 293.271487,15.5289033 293.212446,15.9225092 L293.271486,15.9225092 C293.665092,15.0959368 294.211212,14.4022168 294.909863,13.8413284 C295.608513,13.28044 296.420313,13 297.345287,13 C297.935696,13 298.437536,13.10332 298.850822,13.3099631 C299.264108,13.5166062 299.603588,13.7921262 299.869272,14.1365314 C300.134956,14.4809365 300.326836,14.8696165 300.444918,15.302583 C300.563,15.7355495 300.62204,16.1783495 300.62204,16.6309963 Z M310.63662,24.7490775 C310.597259,24.9458804 310.552979,25.2164804 310.503779,25.5608856 C310.454578,25.9052908 310.400458,26.2644508 310.341417,26.6383764 C310.282376,27.012302 310.228256,27.371462 310.179055,27.7158672 C310.129855,28.0602723 310.095415,28.3210323 310.075734,28.498155 L307.035144,28.498155 C307.074505,28.2029506 307.118785,27.8241106 307.167985,27.3616236 C307.217186,26.8991367 307.281146,26.4514167 307.359867,26.0184502 L307.300827,26.0184502 C306.907221,26.8450226 306.366021,27.5485826 305.67721,28.1291513 C304.9884,28.70972 304.17168,29 303.227026,29 C302.636617,29 302.134777,28.89668 301.721491,28.6900369 C301.308205,28.4833938 300.978565,28.2078738 300.732561,27.8634686 C300.486557,27.5190635 300.304517,27.1254635 300.186435,26.6826568 C300.068354,26.2398502 300.009314,25.7921302 300.009314,25.3394834 C300.009314,25.0245987 300.028994,24.6506787 300.068354,24.2177122 C300.107715,23.7847457 300.166755,23.3616257 300.245476,22.9483395 L301.898613,13.501845 L305.086804,13.501845 L303.433668,22.9188192 C303.335266,23.4108266 303.286066,23.8831466 303.286066,24.3357934 C303.286066,24.847481 303.389386,25.280441 303.59603,25.6346863 C303.802673,25.9889317 304.191353,26.1660517 304.762081,26.1660517 C305.136007,26.1660517 305.495167,26.0627317 305.839572,25.8560886 C306.183977,25.6494455 306.493937,25.3690055 306.769461,25.0147601 C307.044985,24.6605148 307.281145,24.2423148 307.477948,23.7601476 C307.674751,23.2779804 307.822351,22.7515404 307.920753,22.1808118 L309.426288,13.501845 L312.644,13.501845 L310.63662,24.7490775 Z" id="menu"></path>
        </g>
    </g>
</svg>